<svg width="46" height="45" viewBox="0 0 46 45" fill="none" xmlns="http://www.w3.org/2000/svg">
<path d="M33.9088 44.9996C33.0523 44.9939 32.2094 44.7822 31.4486 44.3818L23.9404 40.3502C23.6395 40.1907 23.3052 40.1074 22.9659 40.1074C22.6266 40.1074 22.2923 40.1907 21.9914 40.3502L14.4831 44.3818C13.6122 44.8486 12.6302 45.058 11.6484 44.9862C10.6666 44.9144 9.72414 44.5643 8.92776 43.9755C8.13139 43.3867 7.51289 42.5828 7.14234 41.6548C6.7718 40.7268 6.66399 39.7117 6.83111 38.7246L8.26886 30.2062C8.32569 29.8654 8.30013 29.5155 8.19436 29.187C8.0886 28.8584 7.90583 28.561 7.66182 28.3205L1.57533 22.2893C0.876306 21.588 0.382925 20.7025 0.150438 19.732C-0.08205 18.7615 -0.0444663 17.7443 0.258984 16.7942C0.562434 15.8442 1.11977 14.999 1.86858 14.353C2.61739 13.7071 3.52809 13.286 4.49875 13.137L12.9176 11.9015C13.2573 11.8533 13.5804 11.7215 13.8588 11.5176C14.1372 11.3136 14.3625 11.0436 14.5151 10.731L18.2692 2.99296C18.7043 2.09466 19.3778 1.33824 20.2135 0.809299C21.0492 0.280353 22.0137 0 22.9978 0C23.982 0 24.9465 0.280353 25.7822 0.809299C26.6179 1.33824 27.2914 2.09466 27.7265 2.99296V2.99296L31.4806 10.731C31.6332 11.0436 31.8585 11.3136 32.1369 11.5176C32.4153 11.7215 32.7384 11.8533 33.0781 11.9015L41.4969 13.137C42.4696 13.2829 43.3828 13.7027 44.1334 14.3489C44.884 14.9952 45.442 15.8421 45.7444 16.7941C46.0468 17.7461 46.0816 18.7652 45.8448 19.7363C45.608 20.7073 45.1091 21.5917 44.4044 22.2893L38.3339 28.3205C38.0899 28.561 37.9071 28.8584 37.8013 29.187C37.6956 29.5155 37.67 29.8654 37.7268 30.2062L39.1646 38.7246C39.2949 39.4945 39.2583 40.2841 39.0575 41.0382C38.8567 41.7922 38.4965 42.4925 38.002 43.0901C37.5075 43.6878 36.8907 44.1683 36.1947 44.4981C35.4988 44.8279 34.7404 44.9991 33.9727 44.9996H33.9088ZM22.9659 36.8714C23.8226 36.8751 24.666 37.0869 25.4261 37.4891L32.9343 41.5207C33.2793 41.7007 33.6666 41.7796 34.0531 41.7487C34.4396 41.7177 34.81 41.5782 35.1231 41.3455C35.4362 41.1129 35.6797 40.7963 35.8263 40.4311C35.9729 40.066 36.017 39.6665 35.9536 39.2773L34.5159 30.7589C34.3718 29.9018 34.4347 29.0219 34.6991 28.1949C34.9634 27.368 35.4214 26.6189 36.0335 26.0121L42.12 19.9809C42.3987 19.7059 42.596 19.3569 42.6897 18.9735C42.7833 18.5901 42.7694 18.1877 42.6496 17.8119C42.5299 17.4361 42.309 17.102 42.012 16.8475C41.7151 16.593 41.354 16.4282 40.9698 16.372L32.5669 15.1365C31.7197 15.0093 30.9153 14.6752 30.2226 14.1628C29.5299 13.6504 28.9694 12.9749 28.5891 12.1941L24.835 4.43978C24.6606 4.08749 24.3936 3.7914 24.0635 3.58452C23.7335 3.37763 23.3535 3.2681 22.9659 3.2681C22.5783 3.2681 22.1983 3.37763 21.8683 3.58452C21.5382 3.7914 21.2712 4.08749 21.0968 4.43978L17.3427 12.1941C16.9624 12.9749 16.4019 13.6504 15.7092 14.1628C15.0165 14.6752 14.2121 15.0093 13.3649 15.1365L4.96203 16.372C4.57776 16.4282 4.21667 16.593 3.91974 16.8475C3.62281 17.102 3.40193 17.4361 3.28216 17.8119C3.1624 18.1877 3.14854 18.5901 3.24216 18.9735C3.33579 19.3569 3.53313 19.7059 3.81183 19.9809L9.89832 26.0121C10.5104 26.6189 10.9684 27.368 11.2328 28.1949C11.4971 29.0219 11.56 29.9018 11.4159 30.7589L9.9782 39.2773C9.91479 39.6665 9.95885 40.066 10.1055 40.4311C10.2521 40.7963 10.4956 41.1129 10.8087 41.3455C11.1218 41.5782 11.4922 41.7177 11.8787 41.7487C12.2652 41.7796 12.6525 41.7007 12.9975 41.5207L20.5057 37.4891C21.2685 37.0769 22.1182 36.8594 22.9819 36.8551L22.9659 36.8714Z" fill="#9747FF"/>
</svg>
