<svg width="80" height="80" viewBox="0 0 80 80" fill="none" xmlns="http://www.w3.org/2000/svg">
<g clip-path="url(#clip0_1_8777)">
<path fill-rule="evenodd" clip-rule="evenodd" d="M32.1517 8.09655L33.4759 3.87586C33.9109 2.47821 34.8834 1.31071 36.1795 0.630349C37.4755 -0.0500113 38.9888 -0.187455 40.3862 0.248272L71.9862 10.0965C74.8925 11.0074 76.5146 14.0974 75.6138 17.0069L60.0138 67.0483C59.2824 69.4334 57.0302 71.0219 54.5379 70.9104L32.1517 8.09655Z" fill="url(#paint0_linear_1_8777)"/>
<path fill-rule="evenodd" clip-rule="evenodd" d="M48.2756 74.3724L48.6342 74.4276C51.6477 74.8347 54.4254 72.7345 54.8549 69.7241L62.0135 17.7931C62.4206 14.7796 60.3205 12.002 57.3101 11.5724L24.5101 7.04827C23.0595 6.84804 21.5888 7.2327 20.422 8.11751C19.2552 9.00232 18.488 10.3147 18.2894 11.7655L17.6273 16.5517L48.2756 74.3724Z" fill="url(#paint1_linear_1_8777)"/>
<path d="M42.7585 16.5517H9.65506C6.60797 16.5517 4.13782 19.0219 4.13782 22.069V74.4828C4.13782 77.5298 6.60797 80 9.65506 80H42.7585C45.8056 80 48.2757 77.5298 48.2757 74.4828V22.069C48.2757 19.0219 45.8056 16.5517 42.7585 16.5517Z" fill="#71D17B"/>
<path d="M14.7388 52.642L14.2348 54H11.5888L15.5928 44.2H17.0208L20.9688 54H18.3228L17.8188 52.642H14.7388ZM16.2788 48.484L15.5648 50.388H16.9928L16.2788 48.484ZM22.9424 44.2H26.3864C27.7491 44.2 28.7991 44.564 29.5364 45.292C30.2738 46.02 30.6424 46.9207 30.6424 47.994C30.6424 48.6753 30.4744 49.282 30.1384 49.814C29.8118 50.3367 29.3404 50.7427 28.7244 51.032C29.0324 51.2747 29.4944 51.8627 30.1104 52.796L30.8804 54H28.2064L27.6604 53.16C27.3711 52.7213 27.1704 52.432 27.0584 52.292C26.9558 52.152 26.8158 52.0353 26.6384 51.942C26.4611 51.8487 26.2184 51.7973 25.9104 51.788H25.3224V54H22.9424V44.2ZM25.3224 46.44V49.534H26.6104C27.1518 49.534 27.5811 49.408 27.8984 49.156C28.2251 48.8947 28.3884 48.5073 28.3884 47.994C28.3884 47.4993 28.2204 47.1167 27.8844 46.846C27.5578 46.5753 27.1331 46.44 26.6104 46.44H25.3224ZM36.9142 46.44V54H34.5342V46.44H32.0282V44.2H39.4202V46.44H36.9142Z" fill="white"/>
</g>
<defs>
<linearGradient id="paint0_linear_1_8777" x1="54.0072" y1="-0.00184631" x2="54.0072" y2="70.9159" gradientUnits="userSpaceOnUse">
<stop stop-color="#77C480"/>
<stop offset="1" stop-color="#4C7C51"/>
</linearGradient>
<linearGradient id="paint1_linear_1_8777" x1="39.8457" y1="6.99643" x2="24.5004" y2="74" gradientUnits="userSpaceOnUse">
<stop stop-color="#77C680"/>
<stop offset="1" stop-color="#4A8050"/>
</linearGradient>
<clipPath id="clip0_1_8777">
<rect width="80" height="80" fill="white"/>
</clipPath>
</defs>
</svg>
