<svg width="118" height="118" viewBox="0 0 118 118" fill="none" xmlns="http://www.w3.org/2000/svg">
<circle cx="58.9997" cy="58.9997" r="58.7097" fill="#31263E"/>
<g clip-path="url(#clip0_1_8538)">
<path d="M59.0003 30C49.3906 30 41.6003 39.7382 41.6003 51.75C41.6003 63.7618 49.3906 73.5 59.0003 73.5C68.6099 73.5 76.4003 63.7618 76.4003 51.75C76.4003 39.7382 68.6099 30 59.0003 30ZM59.0003 70.6C51.005 70.6 44.5003 62.1436 44.5003 51.75C44.5003 41.3564 51.005 32.9 59.0003 32.9C66.9956 32.9 73.5003 41.3564 73.5003 51.75C73.5003 62.1436 66.9956 70.6 59.0003 70.6Z" fill="white"/>
<path d="M71.6662 70.9806C70.8881 71.7375 70.0597 72.418 69.1944 73.0309C71.9571 74.3146 74.3805 75.3818 76.4502 76.2857C84.1303 79.6371 85.0999 80.3002 85.0999 82.1997C85.0999 83.5135 83.8064 85.0997 82.1999 85.0997H35.8C34.1934 85.0997 32.9 83.5135 32.9 82.1997C32.9 80.3002 33.8696 79.6371 41.5488 76.2857C43.6194 75.3818 46.0428 74.3147 48.8046 73.0309C47.9394 72.418 47.111 71.7374 46.3328 70.9806C34.2591 76.5061 30 77.2465 30 82.1997C30 85.0997 32.5965 87.9997 35.8 87.9997H82.2C85.4035 87.9997 88 85.0997 88 82.1997C88 77.2465 83.7409 76.5061 71.6662 70.9806Z" fill="white"/>
</g>
<defs>
<clipPath id="clip0_1_8538">
<rect width="58" height="58" fill="white" transform="translate(30 30)"/>
</clipPath>
</defs>
</svg>
