<svg width="52" height="69" viewBox="0 0 52 69" fill="none" xmlns="http://www.w3.org/2000/svg">
<path d="M46.1659 5.11848L13.2829 1.30412C10.2561 0.95302 7.5178 3.1221 7.1667 6.14889L1.1273 58.2136C0.776199 61.2404 2.94527 63.9787 5.97207 64.3298L38.855 68.1441C41.8818 68.4953 44.6201 66.3262 44.9712 63.2994L51.0106 11.2347C51.3617 8.20791 49.1927 5.46958 46.1659 5.11848Z" fill="#E85B67"/>
<path d="M14.1742 37.7398L13.5171 39.0307L10.8887 38.7258L15.9953 29.4524L17.4138 29.617L20.2063 39.8066L17.5779 39.5017L17.2337 38.0947L14.1742 37.7398ZM16.1831 33.7869L15.2544 35.596L16.6729 35.7605L16.1831 33.7869ZM23.296 30.2993L26.7171 30.6961C28.0706 30.8531 29.0717 31.3357 29.7203 32.1438C30.3688 32.9519 30.6312 33.8891 30.5075 34.9552C30.429 35.632 30.1923 36.2153 29.7972 36.7051C29.4125 37.1866 28.8975 37.5356 28.2523 37.752C28.5303 38.0286 28.9214 38.6659 29.4258 39.664L30.0519 40.9487L27.3957 40.6406L26.9502 39.7432C26.7133 39.2742 26.5473 38.9636 26.4522 38.8117C26.3663 38.6608 26.2407 38.5287 26.0753 38.4156C25.9099 38.3024 25.6748 38.2235 25.3699 38.1787L24.7858 38.111L24.5309 40.3082L22.1668 40.034L23.296 30.2993ZM25.402 32.7986L25.0455 35.872L26.325 36.0204C26.8627 36.0828 27.3037 36.0071 27.6479 35.7933C28.0025 35.5714 28.2094 35.2054 28.2686 34.6955C28.3256 34.2042 28.2028 33.8047 27.9002 33.4971C27.6069 33.1906 27.2006 33.0072 26.6815 32.947L25.402 32.7986ZM36.9166 34.1343L36.0455 41.6439L33.6814 41.3697L34.5525 33.86L32.0632 33.5713L32.3213 31.3462L39.664 32.1979L39.4059 34.423L36.9166 34.1343Z" fill="white"/>
</svg>
