<svg width="34" height="34" viewBox="0 0 34 34" fill="none" xmlns="http://www.w3.org/2000/svg">
<g clip-path="url(#clip0_1_8550)">
<circle cx="16.9363" cy="16.9359" r="12.5806" fill="white"/>
<path d="M16.9362 0.161621C7.68703 0.161621 0.162109 7.68637 0.162109 16.9357C0.162109 26.1851 7.68703 33.71 16.9362 33.71C26.1854 33.71 33.7103 26.1851 33.7103 16.9357C33.7103 7.68637 26.1856 0.161621 16.9362 0.161621ZM26.5682 14.1024L16.0299 24.6408C15.5818 25.0888 14.9862 25.3355 14.3525 25.3355C13.7189 25.3355 13.1233 25.0888 12.6752 24.6408L7.30423 19.2698C6.85614 18.8217 6.60934 18.2261 6.60934 17.5925C6.60934 16.9587 6.85614 16.363 7.30423 15.9149C7.75214 15.4668 8.34778 15.22 8.98158 15.22C9.61521 15.22 10.211 15.4668 10.6589 15.9151L14.3524 19.6083L23.2131 10.7475C23.6612 10.2995 24.2569 10.0528 24.8905 10.0528C25.5241 10.0528 26.1198 10.2995 26.5678 10.7475C27.4931 11.6728 27.4931 13.1776 26.5682 14.1024Z" fill="#4CD783"/>
</g>
<defs>
<clipPath id="clip0_1_8550">
<rect width="33.5484" height="33.5484" fill="white" transform="translate(0.162109 0.161621)"/>
</clipPath>
</defs>
</svg>
